{"glyphs":{"0":{"ha":1129,"x_min":0,"x_max":1054,"o":"m 0 407 q 154 695 0 576 q 526 814 308 814 q 899 695 744 814 q 1054 407 1054 576 q 899 119 1054 239 q 526 0 744 0 q 154 119 308 0 q 0 407 0 239 m 526 239 q 628 288 586 239 q 671 407 671 338 q 628 526 671 476 q 526 575 586 575 q 425 526 467 575 q 383 407 383 476 q 425 288 383 338 q 526 239 467 239 z "},"1":{"ha":629,"x_min":0,"x_max":526,"o":"m 143 814 l 526 814 l 526 0 l 143 0 l 143 575 l 0 575 l 143 814 z "},"2":{"ha":1181,"x_min":0,"x_max":1101,"o":"m 526 239 l 1101 239 l 1101 0 l 47 0 l 47 239 l 643 499 q 671 526 671 511 q 628 561 671 547 q 526 575 586 575 q 425 561 467 575 q 383 526 383 547 l 0 526 q 154 730 0 646 q 526 814 308 814 q 899 730 744 814 q 1054 526 1054 646 q 899 324 1054 408 q 526 239 744 239 z "},"3":{"ha":1139,"x_min":0,"x_max":1054,"o":"m 918 440 q 1054 264 1054 364 q 899 77 1054 154 q 526 0 744 0 l 0 0 l 0 239 l 575 239 q 643 253 615 239 q 671 288 671 268 q 642 321 671 307 q 575 335 614 335 l 383 335 l 383 479 l 575 479 q 643 493 615 479 q 671 526 671 507 q 643 561 671 547 q 575 575 615 575 l 575 575 l 575 575 l 0 575 l 0 814 l 503 814 q 858 744 711 814 q 1006 575 1006 674 q 918 440 1006 500 z "},"4":{"ha":1318,"x_min":0,"x_max":1246,"o":"m 1054 814 l 1054 335 l 1246 335 l 1246 96 l 1054 96 l 1054 0 l 671 0 l 671 96 l 0 96 l 0 335 l 1 335 l 483 814 l 1054 814 m 671 335 l 671 526 l 479 335 l 671 335 z "},"5":{"ha":1136,"x_min":0,"x_max":1054,"o":"m 1054 575 l 383 575 l 383 526 l 526 526 q 899 449 744 526 q 1054 264 1054 372 q 899 77 1054 154 q 526 0 744 0 l 0 0 l 0 239 l 526 239 q 671 264 671 239 q 526 288 671 288 l 0 288 l 0 814 l 1054 814 l 1054 575 z "},"6":{"ha":1139,"x_min":0,"x_max":1054,"o":"m 1054 288 q 914 84 1054 168 q 575 0 774 0 q 143 126 303 0 q 0 407 0 240 q 168 695 0 576 q 575 814 336 814 q 982 694 813 814 l 918 544 q 575 601 754 601 q 383 551 461 601 q 575 575 475 575 q 914 491 774 575 q 1054 288 1054 407 m 767 288 q 710 321 767 307 q 575 335 654 335 q 440 321 496 335 q 383 288 383 307 q 440 253 383 268 q 575 239 496 239 q 710 253 654 239 q 767 288 767 268 z "},"7":{"ha":1125,"x_min":0,"x_max":1054,"o":"m 0 814 l 1054 814 l 1054 814 l 708 0 l 292 0 l 536 575 l 0 575 l 0 814 z "},"8":{"ha":1138,"x_min":0,"x_max":1054,"o":"m 903 407 q 1054 239 1054 338 q 899 70 1054 140 q 526 0 744 0 q 154 70 308 0 q 0 239 0 140 q 151 407 0 338 q 0 575 0 476 q 154 744 0 674 q 526 814 308 814 q 899 744 744 814 q 1054 575 1054 674 q 903 407 1054 476 m 383 526 q 425 493 383 507 q 526 479 467 479 q 628 493 586 479 q 671 526 671 507 q 628 561 671 547 q 526 575 586 575 q 425 561 467 575 q 383 526 383 547 m 526 239 q 628 253 586 239 q 671 288 671 268 q 628 321 671 307 q 526 335 586 335 q 425 321 467 335 q 383 288 383 307 q 425 253 383 268 q 526 239 467 239 z "},"9":{"ha":1128,"x_min":0,"x_max":1054,"o":"m 1054 407 q 885 119 1054 239 q 479 0 717 0 q 72 119 240 0 l 136 269 q 479 213 300 213 q 669 264 593 213 q 479 239 579 239 q 140 324 281 239 q 0 526 0 408 q 140 730 0 646 q 479 814 281 814 q 910 688 751 814 q 1054 407 1054 574 m 479 575 q 344 561 400 575 q 288 526 288 547 q 344 493 288 507 q 479 479 400 479 q 615 493 558 479 q 671 526 671 507 q 615 561 671 547 q 479 575 558 575 z "}," ":{"ha":521,"x_min":0,"x_max":0,"o":""},"!":{"ha":429,"x_min":0,"x_max":340,"o":"m 168 239 q 252 204 217 239 q 288 119 288 169 q 252 35 288 69 q 168 0 217 0 q 83 35 118 0 q 47 119 47 69 q 83 204 47 169 q 168 239 118 239 m 288 276 l 47 276 l 0 814 l 340 814 l 288 276 z "},"\"":{"ha":525,"x_min":0,"x_max":431,"o":"m 0 814 l 192 814 l 143 479 l 47 479 l 0 814 m 239 814 l 431 814 l 383 479 l 288 479 l 239 814 z "},"#":{"ha":1550,"x_min":0,"x_max":1464,"o":"m 1464 335 l 1464 143 l 1276 143 l 1258 0 l 876 0 l 893 143 l 606 143 l 589 0 l 206 0 l 222 143 l 14 143 l 14 335 l 244 335 l 261 479 l 0 479 l 0 671 l 285 671 l 301 814 l 685 814 l 667 671 l 954 671 l 972 814 l 1354 814 l 1338 671 l 1450 671 l 1450 479 l 1315 479 l 1299 335 l 1464 335 m 628 335 l 915 335 l 932 479 l 644 479 l 628 335 z "},"$":{"ha":1129,"x_min":0,"x_max":1054,"o":"m 622 535 q 599 517 599 535 q 622 499 599 503 q 1054 297 1054 433 q 959 165 1054 221 q 724 97 864 108 l 724 0 l 340 0 l 340 96 l 0 96 l 0 279 l 431 279 q 456 297 456 279 q 431 315 456 313 q 0 517 0 382 q 98 651 0 594 q 340 717 196 708 l 340 814 l 724 814 l 724 718 l 1054 718 l 1054 535 l 622 535 z "},"%":{"ha":1129,"x_min":0,"x_max":1054,"o":"m 335 0 l 0 0 l 718 814 l 1054 814 l 335 0 m 192 814 q 327 758 271 814 q 383 622 383 701 q 327 487 383 543 q 192 431 271 431 q 56 487 113 431 q 0 622 0 543 q 56 758 0 701 q 192 814 113 814 m 192 540 q 249 565 225 540 q 274 622 274 589 q 249 681 274 657 q 192 704 225 704 q 133 681 157 704 q 110 622 110 657 q 133 565 110 589 q 192 540 157 540 m 863 383 q 998 327 942 383 q 1054 192 1054 271 q 998 56 1054 113 q 863 0 942 0 q 727 56 783 0 q 671 192 671 113 q 727 327 671 271 q 863 383 783 383 m 863 110 q 920 133 896 110 q 944 192 944 157 q 920 249 944 225 q 863 274 896 274 q 804 249 828 274 q 781 192 781 225 q 804 133 781 157 q 863 110 828 110 z "},"&":{"ha":1167,"x_min":0,"x_max":1153,"o":"m 1153 0 l 863 0 l 807 36 q 526 0 678 0 q 154 70 308 0 q 0 239 0 140 q 204 429 0 357 q 119 575 119 493 q 239 744 119 674 q 526 814 358 814 q 815 744 696 814 q 933 575 933 674 q 847 427 933 492 q 626 343 761 363 l 718 283 q 718 288 718 286 l 718 340 l 1054 340 l 1054 239 q 976 115 1054 172 l 1153 0 m 372 508 l 425 475 q 526 479 475 479 q 645 493 596 479 q 694 526 694 507 q 645 561 694 547 q 526 575 596 575 q 408 561 457 575 q 360 526 360 547 q 372 508 360 517 m 335 288 q 493 240 335 247 l 375 317 q 335 288 335 304 z "},"'":{"ha":286,"x_min":0,"x_max":192,"o":"m 0 814 l 192 814 l 143 479 l 47 479 l 0 814 z "},"(":{"ha":589,"x_min":0,"x_max":575,"o":"m 575 -143 l 192 -143 q 0 407 14 35 q 24 611 4 515 q 192 958 72 838 l 575 958 q 383 407 397 781 q 407 204 388 299 q 575 -143 456 -24 z "},")":{"ha":672,"x_min":0,"x_max":575,"o":"m 0 958 l 383 958 q 575 407 561 781 q 551 204 571 299 q 383 -143 503 -24 l 0 -143 q 192 407 178 35 q 168 611 188 515 q 0 958 119 838 z "},"*":{"ha":942,"x_min":0,"x_max":863,"o":"m 863 526 l 863 288 l 639 288 l 750 94 l 543 -26 l 431 168 l 319 -26 l 113 94 l 224 288 l 0 288 l 0 526 l 224 526 l 113 721 l 319 840 l 431 647 l 543 840 l 750 721 l 639 526 l 863 526 z "},"+":{"ha":792,"x_min":0,"x_max":718,"o":"m 718 526 l 718 288 l 479 288 l 479 47 l 239 47 l 239 288 l 0 288 l 0 526 l 239 526 l 239 767 l 479 767 l 479 526 l 718 526 z "},",":{"ha":331,"x_min":0,"x_max":239,"o":"m 0 239 l 239 239 l 96 -143 l 0 -143 l 0 239 z "},"-":{"ha":674,"x_min":0,"x_max":575,"o":"m 575 288 l 0 288 l 0 526 l 575 526 l 575 288 z "},"‐":{"ha":674,"x_min":0,"x_max":575,"o":"m 575 288 l 0 288 l 0 526 l 575 526 l 575 288 z "},".":{"ha":333,"x_min":0,"x_max":239,"o":"m 119 239 q 204 204 169 239 q 239 119 239 169 q 204 35 239 69 q 119 0 169 0 q 35 35 69 0 q 0 119 0 69 q 35 204 0 169 q 119 239 69 239 z "},"/":{"ha":746,"x_min":0,"x_max":671,"o":"m 0 0 l 288 814 l 671 814 l 383 0 l 0 0 z "},":":{"ha":331,"x_min":0,"x_max":239,"o":"m 119 0 q 35 35 69 0 q 0 119 0 69 q 35 204 0 169 q 119 239 69 239 q 204 204 169 239 q 239 119 239 169 q 204 35 239 69 q 119 0 169 0 m 119 431 q 35 466 69 431 q 0 551 0 501 q 35 635 0 600 q 119 671 69 671 q 204 635 169 671 q 239 551 239 600 q 204 466 239 501 q 119 431 169 431 z "},";":{"ha":329,"x_min":0,"x_max":239,"o":"m 119 431 q 35 466 69 431 q 0 551 0 501 q 35 635 0 600 q 119 671 69 671 q 204 635 169 671 q 239 551 239 600 q 204 466 239 501 q 119 431 169 431 m 0 239 l 239 239 l 96 -143 l 0 -143 l 0 239 z "},"<":{"ha":663,"x_min":0,"x_max":576,"o":"m 407 814 l 576 644 l 339 408 l 576 171 l 407 1 l 0 408 l 407 814 z "},"=":{"ha":650,"x_min":0,"x_max":575,"o":"m 575 479 l 0 479 l 0 718 l 575 718 l 575 479 m 575 96 l 0 96 l 0 335 l 575 335 l 575 96 z "},">":{"ha":640,"x_min":0,"x_max":576,"o":"m 169 1 l 0 171 l 238 408 l 0 644 l 169 814 l 576 408 l 169 1 z "},"?":{"ha":1101,"x_min":0,"x_max":1054,"o":"m 526 239 q 612 204 576 239 q 647 119 647 169 q 612 35 647 69 q 526 0 576 0 q 442 35 478 0 q 407 119 407 69 q 442 204 407 169 q 526 239 478 239 m 1054 575 q 947 429 1054 493 q 671 344 839 365 l 671 288 l 383 288 l 383 479 l 526 479 q 628 493 586 479 q 671 526 671 507 q 628 561 671 547 q 526 575 586 575 q 425 561 467 575 q 383 526 383 547 l 0 526 l 0 575 q 154 744 0 674 q 526 814 308 814 q 899 744 744 814 q 1054 575 1054 674 z "},"@":{"ha":1131,"x_min":0,"x_max":1054,"o":"m 526 814 q 899 695 744 814 q 1054 407 1054 576 q 929 143 1054 257 l 526 143 l 532 219 q 290 278 388 225 q 192 404 192 332 q 290 531 192 478 q 532 590 388 583 l 532 622 l 782 622 l 782 239 q 814 239 806 238 q 910 407 910 319 q 798 627 910 536 q 526 718 686 718 q 256 627 368 718 q 143 407 143 536 q 256 187 143 278 q 526 96 368 96 l 863 96 l 863 0 l 526 0 q 154 119 308 0 q 0 407 0 239 q 154 695 0 576 q 526 814 308 814 m 503 374 l 532 374 l 532 436 l 503 436 q 440 404 440 436 q 503 374 440 374 z "},"A":{"ha":1110,"x_min":-44,"x_max":1106,"o":"m 722 0 l 671 143 l 389 143 l 339 0 l -44 0 l 243 814 l 818 814 l 1106 0 l 722 0 m 440 288 l 621 288 l 531 543 l 440 288 z "},"B":{"ha":1140,"x_min":0,"x_max":1054,"o":"m 872 407 q 1004 328 954 379 q 1054 215 1054 278 q 956 63 1054 126 q 718 0 857 0 l 0 0 l 0 814 l 718 814 q 956 751 857 814 q 1054 599 1054 688 q 1004 486 1054 538 q 872 407 954 435 m 335 575 l 335 479 l 647 479 q 698 493 678 479 q 718 526 718 507 q 698 561 718 547 q 647 575 678 575 l 335 575 m 647 239 q 698 253 678 239 q 718 288 718 268 q 698 321 718 307 q 647 335 678 335 l 335 335 l 335 239 l 647 239 z "},"C":{"ha":1142,"x_min":-26,"x_max":1089,"o":"m 624 231 q 833 307 757 231 l 1089 106 q 628 -21 899 -21 q 165 105 357 -21 q -26 407 -26 231 q 165 710 -26 585 q 628 835 357 835 q 1082 714 892 835 l 828 513 q 624 583 751 583 q 443 532 518 583 q 368 407 368 481 q 443 283 368 335 q 624 231 518 231 z "},"D":{"ha":1328,"x_min":0,"x_max":1246,"o":"m 838 814 q 1126 695 1007 814 q 1246 407 1246 576 q 1126 119 1246 239 q 838 0 1007 0 l 0 0 l 0 814 l 838 814 m 671 239 q 790 288 742 239 q 838 407 838 338 q 789 526 838 476 q 671 575 740 575 l 383 575 l 383 239 l 671 239 z "},"E":{"ha":1118,"x_min":0,"x_max":1054,"o":"m 1054 575 l 383 575 l 383 479 l 719 479 l 719 335 l 383 335 l 383 239 l 1054 239 l 1054 0 l 0 0 l 0 814 l 1054 814 l 1054 575 z "},"F":{"ha":1075,"x_min":0,"x_max":1054,"o":"m 1054 575 l 383 575 l 383 479 l 719 479 l 719 335 l 383 335 l 383 0 l 0 0 l 0 814 l 1054 814 l 1054 575 z "},"G":{"ha":1288,"x_min":-31,"x_max":1228,"o":"m 1228 383 l 1228 -21 l 1008 61 q 624 -21 836 -21 q 161 105 353 -21 q -31 407 -31 231 q 161 710 -31 585 q 624 835 353 835 q 1079 714 889 835 l 825 513 q 621 583 749 583 q 440 532 515 583 q 365 407 365 481 q 440 283 365 335 q 621 231 515 231 q 825 303 749 231 l 825 383 l 1228 383 z "},"H":{"ha":1156,"x_min":0,"x_max":1054,"o":"m 671 814 l 1054 814 l 1054 0 l 671 0 l 671 335 l 383 335 l 383 0 l 0 0 l 0 814 l 383 814 l 383 526 l 671 526 l 671 814 z "},"I":{"ha":485,"x_min":0,"x_max":383,"o":"m 383 0 l 0 0 l 0 814 l 383 814 l 383 0 z "},"J":{"ha":1008,"x_min":0,"x_max":910,"o":"m 385 239 q 485 288 443 239 q 526 407 526 338 l 526 814 l 910 814 l 910 407 q 756 119 910 239 q 383 0 601 0 l 143 0 l 0 239 l 385 239 z "},"K":{"ha":1117,"x_min":0,"x_max":1054,"o":"m 819 239 l 1054 239 l 1054 0 l 819 0 q 383 144 554 0 l 383 0 l 0 0 l 0 814 l 383 814 l 383 656 l 556 814 l 1053 814 l 579 382 q 661 280 593 321 q 819 239 729 239 z "},"L":{"ha":1113,"x_min":0,"x_max":1054,"o":"m 383 239 l 1054 239 l 1054 0 l 0 0 l 0 814 l 383 814 l 383 239 z "},"M":{"ha":1347,"x_min":0,"x_max":1246,"o":"m 863 814 l 1246 814 l 1246 0 l 863 0 l 863 288 l 622 0 l 383 288 l 383 0 l 0 0 l 0 814 l 383 814 l 621 526 l 863 814 z "},"N":{"ha":1347,"x_min":0,"x_max":1246,"o":"m 863 814 l 1246 814 l 1246 0 l 863 0 q 383 397 714 244 l 383 0 l 0 0 l 0 814 q 360 772 200 807 q 863 479 742 689 l 863 814 z "},"O":{"ha":1350,"x_min":-31,"x_max":1276,"o":"m -31 407 q 160 710 -31 585 q 622 835 351 835 q 1085 710 893 835 q 1276 407 1276 585 q 1085 105 1276 231 q 622 -21 893 -21 q 160 105 351 -21 q -31 407 -31 231 m 622 231 q 800 283 726 231 q 874 407 874 335 q 800 532 874 481 q 622 583 726 583 q 444 532 518 583 q 371 407 371 481 q 444 283 371 335 q 622 231 518 231 z "},"P":{"ha":1324,"x_min":0,"x_max":1246,"o":"m 767 814 q 1106 730 965 814 q 1246 526 1246 646 q 1122 333 1246 415 q 815 240 997 251 l 815 239 l 383 239 l 383 0 l 0 0 l 0 814 l 767 814 m 767 443 q 863 526 863 467 q 797 601 863 574 q 689 622 746 622 l 383 622 l 383 431 l 671 431 q 767 443 715 431 z "},"Q":{"ha":1376,"x_min":-31,"x_max":1276,"o":"m 1276 407 q 1107 119 1276 242 l 1276 81 l 1276 -21 l 622 -21 q 160 105 351 -21 q -31 407 -31 231 q 160 710 -31 585 q 622 835 351 835 q 1085 710 893 835 q 1276 407 1276 585 m 621 231 q 800 283 726 231 q 874 407 874 335 q 800 532 874 481 q 621 583 726 583 q 442 532 517 583 q 368 407 368 481 q 442 283 368 335 q 621 231 517 231 z "},"R":{"ha":1344,"x_min":0,"x_max":1246,"o":"m 924 256 q 1054 239 993 239 l 1246 239 l 1246 0 l 908 0 q 383 211 743 0 l 383 0 l 0 0 l 0 814 l 767 814 q 1106 730 965 814 q 1246 526 1246 646 q 1156 359 1246 433 q 924 256 1067 285 m 383 622 l 383 431 l 671 431 q 767 443 715 431 q 863 526 863 467 q 797 601 863 574 q 689 622 746 622 l 383 622 z "},"S":{"ha":1139,"x_min":0,"x_max":1054,"o":"m 622 575 q 599 551 599 575 q 622 526 599 532 q 928 432 826 486 q 1054 264 1054 364 q 942 77 1054 154 q 671 0 829 0 l 0 0 l 0 239 l 431 239 q 456 264 456 239 q 431 288 456 282 q 126 382 228 328 q 0 551 0 450 q 113 737 0 660 q 383 814 225 814 l 1054 814 l 1054 575 l 622 575 z "},"T":{"ha":1122,"x_min":0,"x_max":1054,"o":"m 0 814 l 1054 814 l 1054 575 l 718 575 l 718 0 l 335 0 l 335 575 l 0 575 l 0 814 z "},"U":{"ha":1343,"x_min":0,"x_max":1246,"o":"m 1246 407 q 1063 119 1246 239 q 622 0 881 0 q 183 119 365 0 q 0 407 0 239 l 0 814 l 383 814 l 383 407 q 453 288 383 338 q 622 239 524 239 q 792 288 722 239 q 863 407 863 338 l 863 814 l 1246 814 l 1246 407 z "},"V":{"ha":1100,"x_min":-111,"x_max":1039,"o":"m 607 814 l 1039 814 l 656 0 l 272 0 l -111 814 l 319 814 l 464 465 l 607 814 z "},"W":{"ha":1542,"x_min":0,"x_max":1532,"o":"m 1150 814 l 1532 814 l 1246 0 l 863 0 l 767 196 l 671 0 l 288 0 l 0 814 l 383 814 l 553 335 l 767 771 l 981 335 l 1150 814 z "},"X":{"ha":1149,"x_min":-133,"x_max":1078,"o":"m 374 0 l -133 0 l 219 407 l -133 814 l 374 814 l 472 700 l 571 814 l 1078 814 l 726 407 l 1078 0 l 571 0 l 472 114 l 374 0 z "},"Y":{"ha":1007,"x_min":-111,"x_max":943,"o":"m 943 814 l 607 335 l 607 0 l 224 0 l 224 335 l -111 814 l 300 814 l 415 651 l 532 814 l 943 814 z "},"Z":{"ha":1313,"x_min":0,"x_max":1246,"o":"m 731 239 l 1246 239 l 1246 0 l 3 0 l 517 575 l 0 575 l 0 814 l 1244 814 l 731 239 z "},"[":{"ha":604,"x_min":0,"x_max":526,"o":"m 526 718 l 335 718 l 335 96 l 526 96 l 526 -143 l 0 -144 l 0 958 l 526 958 l 526 718 z "},"\\":{"ha":742,"x_min":0,"x_max":671,"o":"m 671 0 l 288 0 l 0 814 l 383 814 l 671 0 z "},"]":{"ha":629,"x_min":0,"x_max":526,"o":"m 0 96 l 192 96 l 192 718 l 0 718 l 0 957 l 526 958 l 526 -144 l 0 -144 l 0 96 z "},"^":{"ha":685,"x_min":0,"x_max":671,"o":"m 192 863 l 0 863 l 335 1101 l 671 863 l 479 863 l 335 958 l 192 863 z "},"_":{"ha":1346,"x_min":0,"x_max":1246,"o":"m 1246 -239 l 0 -239 l 0 0 l 1246 0 l 1246 -239 z "},"`":{"ha":538,"x_min":0,"x_max":524,"o":"m 0 1054 l 239 1054 l 524 863 l 285 863 l 0 1054 z "},"a":{"ha":1110,"x_min":-44,"x_max":1106,"o":"m 722 0 l 671 143 l 389 143 l 339 0 l -44 0 l 243 814 l 818 814 l 1106 0 l 722 0 m 440 288 l 621 288 l 531 543 l 440 288 z "},"b":{"ha":1140,"x_min":0,"x_max":1054,"o":"m 872 407 q 1004 328 954 379 q 1054 215 1054 278 q 956 63 1054 126 q 718 0 857 0 l 0 0 l 0 814 l 718 814 q 956 751 857 814 q 1054 599 1054 688 q 1004 486 1054 538 q 872 407 954 435 m 335 575 l 335 479 l 647 479 q 698 493 678 479 q 718 526 718 507 q 698 561 718 547 q 647 575 678 575 l 335 575 m 647 239 q 698 253 678 239 q 718 288 718 268 q 698 321 718 307 q 647 335 678 335 l 335 335 l 335 239 l 647 239 z "},"c":{"ha":1142,"x_min":-26,"x_max":1089,"o":"m 624 231 q 833 307 757 231 l 1089 106 q 628 -21 899 -21 q 165 105 357 -21 q -26 407 -26 231 q 165 710 -26 585 q 628 835 357 835 q 1082 714 892 835 l 828 513 q 624 583 751 583 q 443 532 518 583 q 368 407 368 481 q 443 283 368 335 q 624 231 518 231 z "},"d":{"ha":1328,"x_min":0,"x_max":1246,"o":"m 838 814 q 1126 695 1007 814 q 1246 407 1246 576 q 1126 119 1246 239 q 838 0 1007 0 l 0 0 l 0 814 l 838 814 m 671 239 q 790 288 742 239 q 838 407 838 338 q 789 526 838 476 q 671 575 740 575 l 383 575 l 383 239 l 671 239 z "},"e":{"ha":1118,"x_min":0,"x_max":1054,"o":"m 1054 575 l 383 575 l 383 479 l 719 479 l 719 335 l 383 335 l 383 239 l 1054 239 l 1054 0 l 0 0 l 0 814 l 1054 814 l 1054 575 z "},"f":{"ha":1075,"x_min":0,"x_max":1054,"o":"m 1054 575 l 383 575 l 383 479 l 719 479 l 719 335 l 383 335 l 383 0 l 0 0 l 0 814 l 1054 814 l 1054 575 z "},"g":{"ha":1288,"x_min":-31,"x_max":1228,"o":"m 1228 383 l 1228 -21 l 1008 61 q 624 -21 836 -21 q 161 105 353 -21 q -31 407 -31 231 q 161 710 -31 585 q 624 835 353 835 q 1079 714 889 835 l 825 513 q 621 583 749 583 q 440 532 515 583 q 365 407 365 481 q 440 283 365 335 q 621 231 515 231 q 825 303 749 231 l 825 383 l 1228 383 z "},"h":{"ha":1156,"x_min":0,"x_max":1054,"o":"m 671 814 l 1054 814 l 1054 0 l 671 0 l 671 335 l 383 335 l 383 0 l 0 0 l 0 814 l 383 814 l 383 526 l 671 526 l 671 814 z "},"i":{"ha":485,"x_min":0,"x_max":383,"o":"m 383 0 l 0 0 l 0 814 l 383 814 l 383 0 z "},"j":{"ha":1008,"x_min":0,"x_max":910,"o":"m 385 239 q 485 288 443 239 q 526 407 526 338 l 526 814 l 910 814 l 910 407 q 756 119 910 239 q 383 0 601 0 l 143 0 l 0 239 l 385 239 z "},"k":{"ha":1117,"x_min":0,"x_max":1054,"o":"m 819 239 l 1054 239 l 1054 0 l 819 0 q 383 144 554 0 l 383 0 l 0 0 l 0 814 l 383 814 l 383 656 l 556 814 l 1053 814 l 579 382 q 661 280 593 321 q 819 239 729 239 z "},"l":{"ha":1113,"x_min":0,"x_max":1054,"o":"m 383 239 l 1054 239 l 1054 0 l 0 0 l 0 814 l 383 814 l 383 239 z "},"m":{"ha":1347,"x_min":0,"x_max":1246,"o":"m 863 814 l 1246 814 l 1246 0 l 863 0 l 863 288 l 622 0 l 383 288 l 383 0 l 0 0 l 0 814 l 383 814 l 621 526 l 863 814 z "},"n":{"ha":1347,"x_min":0,"x_max":1246,"o":"m 863 814 l 1246 814 l 1246 0 l 863 0 q 383 397 714 244 l 383 0 l 0 0 l 0 814 q 360 772 200 807 q 863 479 742 689 l 863 814 z "},"o":{"ha":1350,"x_min":-31,"x_max":1276,"o":"m -31 407 q 160 710 -31 585 q 622 835 351 835 q 1085 710 893 835 q 1276 407 1276 585 q 1085 105 1276 231 q 622 -21 893 -21 q 160 105 351 -21 q -31 407 -31 231 m 622 231 q 800 283 726 231 q 874 407 874 335 q 800 532 874 481 q 622 583 726 583 q 444 532 518 583 q 371 407 371 481 q 444 283 371 335 q 622 231 518 231 z "},"p":{"ha":1324,"x_min":0,"x_max":1246,"o":"m 767 814 q 1106 730 965 814 q 1246 526 1246 646 q 1122 333 1246 415 q 815 240 997 251 l 815 239 l 383 239 l 383 0 l 0 0 l 0 814 l 767 814 m 767 443 q 863 526 863 467 q 797 601 863 574 q 689 622 746 622 l 383 622 l 383 431 l 671 431 q 767 443 715 431 z "},"q":{"ha":1376,"x_min":-31,"x_max":1276,"o":"m 1276 407 q 1107 119 1276 242 l 1276 81 l 1276 -21 l 622 -21 q 160 105 351 -21 q -31 407 -31 231 q 160 710 -31 585 q 622 835 351 835 q 1085 710 893 835 q 1276 407 1276 585 m 621 231 q 800 283 726 231 q 874 407 874 335 q 800 532 874 481 q 621 583 726 583 q 442 532 517 583 q 368 407 368 481 q 442 283 368 335 q 621 231 517 231 z "},"r":{"ha":1344,"x_min":0,"x_max":1246,"o":"m 924 256 q 1054 239 993 239 l 1246 239 l 1246 0 l 908 0 q 383 211 743 0 l 383 0 l 0 0 l 0 814 l 767 814 q 1106 730 965 814 q 1246 526 1246 646 q 1156 359 1246 433 q 924 256 1067 285 m 383 622 l 383 431 l 671 431 q 767 443 715 431 q 863 526 863 467 q 797 601 863 574 q 689 622 746 622 l 383 622 z "},"s":{"ha":1139,"x_min":0,"x_max":1054,"o":"m 622 575 q 599 551 599 575 q 622 526 599 532 q 928 432 826 486 q 1054 264 1054 364 q 942 77 1054 154 q 671 0 829 0 l 0 0 l 0 239 l 431 239 q 456 264 456 239 q 431 288 456 282 q 126 382 228 328 q 0 551 0 450 q 113 737 0 660 q 383 814 225 814 l 1054 814 l 1054 575 l 622 575 z "},"t":{"ha":1122,"x_min":0,"x_max":1054,"o":"m 0 814 l 1054 814 l 1054 575 l 718 575 l 718 0 l 335 0 l 335 575 l 0 575 l 0 814 z "},"u":{"ha":1343,"x_min":0,"x_max":1246,"o":"m 1246 407 q 1063 119 1246 239 q 622 0 881 0 q 183 119 365 0 q 0 407 0 239 l 0 814 l 383 814 l 383 407 q 453 288 383 338 q 622 239 524 239 q 792 288 722 239 q 863 407 863 338 l 863 814 l 1246 814 l 1246 407 z "},"v":{"ha":1100,"x_min":-111,"x_max":1039,"o":"m 607 814 l 1039 814 l 656 0 l 272 0 l -111 814 l 319 814 l 464 465 l 607 814 z "},"w":{"ha":1542,"x_min":0,"x_max":1532,"o":"m 1150 814 l 1532 814 l 1246 0 l 863 0 l 767 196 l 671 0 l 288 0 l 0 814 l 383 814 l 553 335 l 767 771 l 981 335 l 1150 814 z "},"x":{"ha":1149,"x_min":-133,"x_max":1078,"o":"m 374 0 l -133 0 l 219 407 l -133 814 l 374 814 l 472 700 l 571 814 l 1078 814 l 726 407 l 1078 0 l 571 0 l 472 114 l 374 0 z "},"y":{"ha":1007,"x_min":-111,"x_max":943,"o":"m 943 814 l 607 335 l 607 0 l 224 0 l 224 335 l -111 814 l 300 814 l 415 651 l 532 814 l 943 814 z "},"z":{"ha":1313,"x_min":0,"x_max":1246,"o":"m 731 239 l 1246 239 l 1246 0 l 3 0 l 517 575 l 0 575 l 0 814 l 1244 814 l 731 239 z "},"{":{"ha":879,"x_min":0,"x_max":814,"o":"m 514 718 q 479 694 479 718 q 564 408 558 583 q 553 310 563 357 q 479 119 532 196 q 514 96 479 96 l 814 96 l 814 -143 l 479 -143 q 208 -66 321 -143 q 96 119 96 11 q 167 288 139 181 l 0 288 l 0 526 l 167 526 q 149 586 158 558 q 96 694 125 653 q 208 881 96 804 q 479 958 321 958 l 814 958 l 814 718 l 514 718 z "},"|":{"ha":438,"x_min":0,"x_max":335,"o":"m 335 -143 l 0 -143 l 0 956 l 335 956 l 335 -143 z "},"}":{"ha":911,"x_min":0,"x_max":814,"o":"m 300 96 q 335 119 335 96 q 250 406 256 231 q 261 504 251 457 q 335 694 282 618 q 300 718 335 718 l 0 718 l 0 958 l 335 958 q 606 881 494 958 q 718 694 718 804 q 647 526 675 633 l 814 526 l 814 288 l 647 288 q 665 228 656 256 q 718 119 689 161 q 606 -66 718 11 q 335 -143 494 -143 l 0 -143 l 0 96 l 300 96 z "},"~":{"ha":828,"x_min":0,"x_max":814,"o":"m 0 863 q 288 1101 89 1085 q 406 1075 369 1101 q 451 1026 428 1051 q 526 1001 475 1001 q 563 1014 546 1003 q 622 1101 603 1039 l 814 1101 q 658 892 794 951 q 526 863 601 867 q 394 888 443 863 q 335 933 369 900 q 288 958 310 958 q 251 946 268 956 q 192 863 211 922 l 0 863 z "},"Ä":{"ha":1110,"x_min":-44,"x_max":1106,"o":"m 722 0 l 671 143 l 389 143 l 339 0 l -44 0 l 243 814 l 818 814 l 1106 0 l 722 0 m 440 288 l 621 288 l 531 543 l 440 288 m 372 1101 q 457 1067 422 1101 q 492 982 492 1032 q 457 897 492 932 q 372 863 422 863 q 288 897 322 863 q 253 982 253 932 q 288 1067 253 1032 q 372 1101 322 1101 m 683 1101 q 768 1067 733 1101 q 803 982 803 1032 q 768 897 803 932 q 683 863 733 863 q 599 897 633 863 q 564 982 564 932 q 599 1067 564 1032 q 683 1101 633 1101 z "},"Å":{"ha":1110,"x_min":-44,"x_max":1106,"o":"m 440 288 l 621 288 l 531 543 l 440 288 m 531 1111 q 666 1055 610 1111 q 722 919 722 999 q 690 814 722 863 l 818 814 l 1106 0 l 722 0 l 671 143 l 389 143 l 339 0 l -44 0 l 243 814 l 371 814 q 339 919 339 863 q 395 1055 339 999 q 531 1111 451 1111 m 531 838 q 588 862 564 838 q 613 919 613 886 q 588 978 613 954 q 531 1001 564 1001 q 472 978 496 1001 q 449 919 449 954 q 472 862 449 886 q 531 838 496 838 z "},"Ç":{"ha":1143,"x_min":-26,"x_max":1089,"o":"m 678 -65 q 778 -165 771 -65 q 678 -265 771 -265 l 476 -265 l 476 -215 l 628 -215 q 678 -165 674 -215 q 628 -115 674 -115 l 526 -115 l 526 -10 q 132 134 290 14 q -26 413 -26 254 q 165 715 -26 590 q 628 840 357 840 q 1082 719 892 840 l 828 518 q 624 589 751 589 q 443 538 518 589 q 368 413 368 486 q 443 289 368 340 q 624 238 518 238 q 833 314 757 238 l 1089 111 q 678 -12 918 -1 l 678 -65 z "},"É":{"ha":1118,"x_min":0,"x_max":1054,"o":"m 1054 575 l 383 575 l 383 479 l 719 479 l 719 335 l 383 335 l 383 239 l 1054 239 l 1054 0 l 0 0 l 0 814 l 1054 814 l 1054 575 m 313 863 l 597 1054 l 836 1054 l 551 863 l 313 863 z "},"Ñ":{"ha":1347,"x_min":0,"x_max":1246,"o":"m 863 814 l 1246 814 l 1246 0 l 863 0 q 383 397 714 244 l 383 0 l 0 0 l 0 814 q 360 772 200 807 q 863 479 742 689 l 863 814 m 194 863 q 482 1101 283 1085 q 601 1075 564 1101 q 647 1026 624 1051 q 721 1001 669 1001 q 757 1014 740 1003 q 817 1101 797 1039 l 1008 1101 q 853 892 989 951 q 721 863 797 867 q 589 888 638 863 q 529 933 564 900 q 482 958 506 958 q 446 946 463 956 q 386 863 406 922 l 194 863 z "},"Ö":{"ha":1350,"x_min":-31,"x_max":1276,"o":"m -31 407 q 160 710 -31 585 q 622 835 351 835 q 1085 710 893 835 q 1276 407 1276 585 q 1085 105 1276 231 q 622 -21 893 -21 q 160 105 351 -21 q -31 407 -31 231 m 622 231 q 800 283 726 231 q 874 407 874 335 q 800 532 874 481 q 622 583 726 583 q 444 532 518 583 q 371 407 371 481 q 444 283 371 335 q 622 231 518 231 m 478 1101 q 563 1067 528 1101 q 597 982 597 1032 q 563 897 597 932 q 478 863 528 863 q 393 897 428 863 q 358 982 358 932 q 393 1067 358 1032 q 478 1101 428 1101 m 789 1101 q 874 1067 839 1101 q 908 982 908 1032 q 874 897 908 932 q 789 863 839 863 q 704 897 739 863 q 669 982 669 932 q 704 1067 669 1032 q 789 1101 739 1101 z "},"Ü":{"ha":1343,"x_min":0,"x_max":1246,"o":"m 1246 407 q 1063 119 1246 239 q 622 0 881 0 q 183 119 365 0 q 0 407 0 239 l 0 814 l 383 814 l 383 407 q 453 288 383 338 q 622 239 524 239 q 792 288 722 239 q 863 407 863 338 l 863 814 l 1246 814 l 1246 407 m 461 1101 q 546 1067 511 1101 q 581 982 581 1032 q 546 897 581 932 q 461 863 511 863 q 376 897 411 863 q 342 982 342 932 q 376 1067 342 1032 q 461 1101 411 1101 m 772 1101 q 858 1067 822 1101 q 893 982 893 1032 q 858 897 893 932 q 772 863 822 863 q 688 897 724 863 q 653 982 653 932 q 688 1067 653 1032 q 772 1101 724 1101 z "},"á":{"ha":1110,"x_min":-44,"x_max":1106,"o":"m 722 0 l 671 143 l 389 143 l 339 0 l -44 0 l 243 814 l 818 814 l 1106 0 l 722 0 m 440 288 l 621 288 l 531 543 l 440 288 m 290 863 l 575 1054 l 814 1054 l 529 863 l 290 863 z "},"à":{"ha":1110,"x_min":-44,"x_max":1106,"o":"m 722 0 l 671 143 l 389 143 l 339 0 l -44 0 l 243 814 l 818 814 l 1106 0 l 722 0 m 440 288 l 621 288 l 531 543 l 440 288 m 244 1054 l 483 1054 l 768 863 l 529 863 l 244 1054 z "},"â":{"ha":1110,"x_min":-44,"x_max":1106,"o":"m 722 0 l 671 143 l 389 143 l 339 0 l -44 0 l 243 814 l 818 814 l 1106 0 l 722 0 m 440 288 l 621 288 l 531 543 l 440 288 m 386 863 l 194 863 l 529 1101 l 864 863 l 672 863 l 529 958 l 386 863 z "},"ä":{"ha":1110,"x_min":-44,"x_max":1106,"o":"m 722 0 l 671 143 l 389 143 l 339 0 l -44 0 l 243 814 l 818 814 l 1106 0 l 722 0 m 440 288 l 621 288 l 531 543 l 440 288 m 372 1101 q 457 1067 422 1101 q 492 982 492 1032 q 457 897 492 932 q 372 863 422 863 q 288 897 322 863 q 253 982 253 932 q 288 1067 253 1032 q 372 1101 322 1101 m 683 1101 q 768 1067 733 1101 q 803 982 803 1032 q 768 897 803 932 q 683 863 733 863 q 599 897 633 863 q 564 982 564 932 q 599 1067 564 1032 q 683 1101 633 1101 z "},"ã":{"ha":1110,"x_min":-44,"x_max":1106,"o":"m 722 0 l 671 143 l 389 143 l 339 0 l -44 0 l 243 814 l 818 814 l 1106 0 l 722 0 m 440 288 l 621 288 l 531 543 l 440 288 m 121 863 q 408 1101 210 1085 q 528 1075 490 1101 q 573 1026 550 1051 q 647 1001 596 1001 q 683 1014 667 1003 q 743 1101 724 1039 l 935 1101 q 779 892 915 951 q 647 863 724 867 q 515 888 564 863 q 456 933 490 900 q 408 958 432 958 q 372 946 389 956 q 313 863 332 922 l 121 863 z "},"å":{"ha":1110,"x_min":-44,"x_max":1106,"o":"m 440 288 l 621 288 l 531 543 l 440 288 m 531 1111 q 666 1055 610 1111 q 722 919 722 999 q 690 814 722 863 l 818 814 l 1106 0 l 722 0 l 671 143 l 389 143 l 339 0 l -44 0 l 243 814 l 371 814 q 339 919 339 863 q 395 1055 339 999 q 531 1111 451 1111 m 531 838 q 588 862 564 838 q 613 919 613 886 q 588 978 613 954 q 531 1001 564 1001 q 472 978 496 1001 q 449 919 449 954 q 472 862 449 886 q 531 838 496 838 z "},"ç":{"ha":1143,"x_min":-26,"x_max":1089,"o":"m 678 -65 q 778 -165 771 -65 q 678 -265 771 -265 l 476 -265 l 476 -215 l 628 -215 q 678 -165 674 -215 q 628 -115 674 -115 l 526 -115 l 526 -10 q 132 134 290 14 q -26 413 -26 254 q 165 715 -26 590 q 628 840 357 840 q 1082 719 892 840 l 828 518 q 624 589 751 589 q 443 538 518 589 q 368 413 368 486 q 443 289 368 340 q 624 238 518 238 q 833 314 757 238 l 1089 111 q 678 -12 918 -1 l 678 -65 z "},"é":{"ha":1118,"x_min":0,"x_max":1054,"o":"m 1054 575 l 383 575 l 383 479 l 719 479 l 719 335 l 383 335 l 383 239 l 1054 239 l 1054 0 l 0 0 l 0 814 l 1054 814 l 1054 575 m 313 863 l 597 1054 l 836 1054 l 551 863 l 313 863 z "},"è":{"ha":1118,"x_min":0,"x_max":1054,"o":"m 1054 575 l 383 575 l 383 479 l 719 479 l 719 335 l 383 335 l 383 239 l 1054 239 l 1054 0 l 0 0 l 0 814 l 1054 814 l 1054 575 m 231 1054 l 469 1054 l 754 863 l 515 863 l 231 1054 z "},"ê":{"ha":1118,"x_min":0,"x_max":1054,"o":"m 1054 575 l 383 575 l 383 479 l 719 479 l 719 335 l 383 335 l 383 239 l 1054 239 l 1054 0 l 0 0 l 0 814 l 1054 814 l 1054 575 m 388 863 l 196 863 l 532 1101 l 867 863 l 675 863 l 532 958 l 388 863 z "},"ë":{"ha":1118,"x_min":0,"x_max":1054,"o":"m 1054 575 l 383 575 l 383 479 l 719 479 l 719 335 l 383 335 l 383 239 l 1054 239 l 1054 0 l 0 0 l 0 814 l 1054 814 l 1054 575 m 372 1101 q 457 1067 422 1101 q 492 982 492 1032 q 457 897 492 932 q 372 863 422 863 q 288 897 322 863 q 253 982 253 932 q 288 1067 253 1032 q 372 1101 322 1101 m 683 1101 q 768 1067 733 1101 q 803 982 803 1032 q 768 897 803 932 q 683 863 733 863 q 599 897 633 863 q 564 982 564 932 q 599 1067 564 1032 q 683 1101 633 1101 z "},"í":{"ha":485,"x_min":0,"x_max":524,"o":"m 383 0 l 0 0 l 0 814 l 383 814 l 383 0 m 0 863 l 285 1054 l 524 1054 l 239 863 l 0 863 z "},"ì":{"ha":485,"x_min":-153,"x_max":383,"o":"m 383 0 l 0 0 l 0 814 l 383 814 l 383 0 m -153 1054 l 86 1054 l 371 863 l 132 863 l -153 1054 z "},"î":{"ha":485,"x_min":-139,"x_max":531,"o":"m 383 0 l 0 0 l 0 814 l 383 814 l 383 0 m 53 863 l -139 863 l 196 1101 l 531 863 l 339 863 l 196 958 l 53 863 z "},"ï":{"ha":485,"x_min":-83,"x_max":468,"o":"m 383 0 l 0 0 l 0 814 l 383 814 l 383 0 m 36 1101 q 121 1067 86 1101 q 156 982 156 1032 q 121 897 156 932 q 36 863 86 863 q -49 897 -14 863 q -83 982 -83 932 q -49 1067 -83 1032 q 36 1101 -14 1101 m 347 1101 q 433 1067 397 1101 q 468 982 468 1032 q 433 897 468 932 q 347 863 397 863 q 263 897 299 863 q 228 982 228 932 q 263 1067 228 1032 q 347 1101 299 1101 z "},"ñ":{"ha":1347,"x_min":0,"x_max":1246,"o":"m 863 814 l 1246 814 l 1246 0 l 863 0 q 383 397 714 244 l 383 0 l 0 0 l 0 814 q 360 772 200 807 q 863 479 742 689 l 863 814 m 194 863 q 482 1101 283 1085 q 601 1075 564 1101 q 647 1026 624 1051 q 721 1001 669 1001 q 757 1014 740 1003 q 817 1101 797 1039 l 1008 1101 q 853 892 989 951 q 721 863 797 867 q 589 888 638 863 q 529 933 564 900 q 482 958 506 958 q 446 946 463 956 q 386 863 406 922 l 194 863 z "},"ó":{"ha":1350,"x_min":-31,"x_max":1276,"o":"m -31 407 q 160 710 -31 585 q 622 835 351 835 q 1085 710 893 835 q 1276 407 1276 585 q 1085 105 1276 231 q 622 -21 893 -21 q 160 105 351 -21 q -31 407 -31 231 m 622 231 q 800 283 726 231 q 874 407 874 335 q 800 532 874 481 q 622 583 726 583 q 444 532 518 583 q 371 407 371 481 q 444 283 371 335 q 622 231 518 231 m 454 863 l 739 1054 l 978 1054 l 693 863 l 454 863 z "},"ò":{"ha":1350,"x_min":-31,"x_max":1276,"o":"m -31 407 q 160 710 -31 585 q 622 835 351 835 q 1085 710 893 835 q 1276 407 1276 585 q 1085 105 1276 231 q 622 -21 893 -21 q 160 105 351 -21 q -31 407 -31 231 m 622 231 q 800 283 726 231 q 874 407 874 335 q 800 532 874 481 q 622 583 726 583 q 444 532 518 583 q 371 407 371 481 q 444 283 371 335 q 622 231 518 231 m 269 1054 l 508 1054 l 793 863 l 554 863 l 269 1054 z "},"ô":{"ha":1350,"x_min":-31,"x_max":1276,"o":"m -31 407 q 160 710 -31 585 q 622 835 351 835 q 1085 710 893 835 q 1276 407 1276 585 q 1085 105 1276 231 q 622 -21 893 -21 q 160 105 351 -21 q -31 407 -31 231 m 622 231 q 800 283 726 231 q 874 407 874 335 q 800 532 874 481 q 622 583 726 583 q 444 532 518 583 q 371 407 371 481 q 444 283 371 335 q 622 231 518 231 m 475 863 l 283 863 l 618 1101 l 953 863 l 761 863 l 618 958 l 475 863 z "},"ö":{"ha":1350,"x_min":-31,"x_max":1276,"o":"m -31 407 q 160 710 -31 585 q 622 835 351 835 q 1085 710 893 835 q 1276 407 1276 585 q 1085 105 1276 231 q 622 -21 893 -21 q 160 105 351 -21 q -31 407 -31 231 m 622 231 q 800 283 726 231 q 874 407 874 335 q 800 532 874 481 q 622 583 726 583 q 444 532 518 583 q 371 407 371 481 q 444 283 371 335 q 622 231 518 231 m 478 1101 q 563 1067 528 1101 q 597 982 597 1032 q 563 897 597 932 q 478 863 528 863 q 393 897 428 863 q 358 982 358 932 q 393 1067 358 1032 q 478 1101 428 1101 m 789 1101 q 874 1067 839 1101 q 908 982 908 1032 q 874 897 908 932 q 789 863 839 863 q 704 897 739 863 q 669 982 669 932 q 704 1067 669 1032 q 789 1101 739 1101 z "},"õ":{"ha":1350,"x_min":-31,"x_max":1276,"o":"m -31 407 q 160 710 -31 585 q 622 835 351 835 q 1085 710 893 835 q 1276 407 1276 585 q 1085 105 1276 231 q 622 -21 893 -21 q 160 105 351 -21 q -31 407 -31 231 m 622 231 q 800 283 726 231 q 874 407 874 335 q 800 532 874 481 q 622 583 726 583 q 444 532 518 583 q 371 407 371 481 q 444 283 371 335 q 622 231 518 231 m 214 863 q 501 1101 303 1085 q 621 1075 583 1101 q 666 1026 643 1051 q 740 1001 689 1001 q 776 1014 760 1003 q 836 1101 817 1039 l 1028 1101 q 872 892 1008 951 q 740 863 817 867 q 608 888 657 863 q 549 933 583 900 q 501 958 525 958 q 465 946 482 956 q 406 863 425 922 l 214 863 z "},"ú":{"ha":1343,"x_min":0,"x_max":1246,"o":"m 1246 407 q 1063 119 1246 239 q 622 0 881 0 q 183 119 365 0 q 0 407 0 239 l 0 814 l 383 814 l 383 407 q 453 288 383 338 q 622 239 524 239 q 792 288 722 239 q 863 407 863 338 l 863 814 l 1246 814 l 1246 407 m 483 863 l 768 1054 l 1007 1054 l 722 863 l 483 863 z "},"ù":{"ha":1343,"x_min":0,"x_max":1246,"o":"m 1246 407 q 1063 119 1246 239 q 622 0 881 0 q 183 119 365 0 q 0 407 0 239 l 0 814 l 383 814 l 383 407 q 453 288 383 338 q 622 239 524 239 q 792 288 722 239 q 863 407 863 338 l 863 814 l 1246 814 l 1246 407 m 253 1054 l 493 1054 l 778 863 l 538 863 l 253 1054 z "},"û":{"ha":1343,"x_min":0,"x_max":1246,"o":"m 1246 407 q 1063 119 1246 239 q 622 0 881 0 q 183 119 365 0 q 0 407 0 239 l 0 814 l 383 814 l 383 407 q 453 288 383 338 q 622 239 524 239 q 792 288 722 239 q 863 407 863 338 l 863 814 l 1246 814 l 1246 407 m 475 863 l 283 863 l 618 1101 l 953 863 l 761 863 l 618 958 l 475 863 z "},"ü":{"ha":1343,"x_min":0,"x_max":1246,"o":"m 1246 407 q 1063 119 1246 239 q 622 0 881 0 q 183 119 365 0 q 0 407 0 239 l 0 814 l 383 814 l 383 407 q 453 288 383 338 q 622 239 524 239 q 792 288 722 239 q 863 407 863 338 l 863 814 l 1246 814 l 1246 407 m 461 1101 q 546 1067 511 1101 q 581 982 581 1032 q 546 897 581 932 q 461 863 511 863 q 376 897 411 863 q 342 982 342 932 q 376 1067 342 1032 q 461 1101 411 1101 m 772 1101 q 858 1067 822 1101 q 893 982 893 1032 q 858 897 893 932 q 772 863 822 863 q 688 897 724 863 q 653 982 653 932 q 688 1067 653 1032 q 772 1101 724 1101 z "},"£":{"ha":1203,"x_min":0,"x_max":1154,"o":"m 771 335 l 1154 335 q 1034 77 1154 154 q 628 0 914 0 q 472 13 551 1 q 100 96 281 36 l 100 313 l 0 313 l 0 504 l 100 504 l 100 575 q 190 694 115 644 q 819 814 369 814 l 819 575 q 493 504 564 575 l 671 504 l 671 313 l 488 313 q 628 244 511 244 q 733 271 696 244 q 771 335 771 297 z "},"§":{"ha":1147,"x_min":0,"x_max":1054,"o":"m 599 742 q 622 718 599 724 q 928 624 826 678 q 1054 456 1054 556 q 950 275 1054 351 q 1054 119 1054 211 q 942 -66 1054 11 q 671 -143 829 -143 l 0 -143 l 0 96 l 431 96 q 456 119 456 96 q 431 143 456 139 q 126 239 228 185 q 0 407 0 306 q 103 588 0 511 q 0 742 0 651 q 113 928 0 851 q 383 1006 225 1006 l 1054 1006 l 1054 767 l 622 767 q 599 742 599 767 m 526 311 q 637 342 592 311 q 682 415 682 372 q 637 489 682 458 q 526 519 592 519 q 417 489 463 519 q 371 415 371 458 q 417 342 371 372 q 526 311 463 311 z "},"•":{"ha":722,"x_min":0,"x_max":625,"o":"m 313 96 q 92 188 183 96 q 0 408 0 279 q 92 629 0 538 q 313 721 183 721 q 533 629 442 721 q 625 408 625 538 q 533 188 625 279 q 313 96 442 96 z "},"ß":{"ha":1125,"x_min":0,"x_max":1054,"o":"m 850 429 q 1054 239 1054 357 q 899 70 1054 140 q 526 0 744 0 l 526 239 q 662 253 606 239 q 718 288 718 268 q 662 321 718 307 q 526 335 606 335 l 526 339 q 503 335 515 335 q 452 356 474 335 q 431 407 431 378 q 452 458 431 438 q 503 479 474 479 q 526 475 515 479 l 526 479 q 645 493 596 479 q 694 526 694 507 q 645 561 694 547 q 526 575 596 575 q 383 551 432 575 l 383 -143 l 0 -143 l 0 814 l 526 814 q 815 744 696 814 q 933 575 933 674 q 850 429 933 493 z "},"®":{"ha":1129,"x_min":0,"x_max":1054,"o":"m 0 407 q 154 695 0 576 q 526 814 308 814 q 899 695 744 814 q 1054 407 1054 576 q 899 119 1054 239 q 526 0 744 0 q 154 119 308 0 q 0 407 0 239 m 526 96 q 798 187 686 96 q 910 407 910 278 q 798 627 910 536 q 526 718 686 718 q 256 627 368 718 q 143 407 143 536 q 256 187 143 278 q 526 96 368 96 m 674 353 q 732 344 706 344 l 818 344 l 818 238 l 667 238 q 431 332 593 238 l 431 238 l 260 238 l 260 603 l 603 603 q 755 565 692 603 q 818 474 818 528 q 778 399 818 432 q 674 353 738 365 m 431 517 l 431 431 l 560 431 q 603 436 581 431 q 646 474 646 447 q 617 507 646 496 q 568 517 594 517 l 431 517 z "},"©":{"ha":1129,"x_min":0,"x_max":1054,"o":"m 0 407 q 154 695 0 576 q 526 814 308 814 q 899 695 744 814 q 1054 407 1054 576 q 899 119 1054 239 q 526 0 744 0 q 154 119 308 0 q 0 407 0 239 m 526 96 q 798 187 686 96 q 910 407 910 278 q 798 627 910 536 q 526 718 686 718 q 256 627 368 718 q 143 407 143 536 q 256 187 143 278 q 526 96 368 96 m 553 326 q 667 367 625 326 l 806 258 q 556 190 701 190 q 306 258 410 190 q 203 421 203 325 q 306 584 203 517 q 556 651 410 651 q 801 586 699 651 l 664 478 q 553 515 622 515 q 456 488 496 515 q 415 421 415 460 q 456 354 415 382 q 553 326 496 326 z "},"™":{"ha":1110,"x_min":0,"x_max":1006,"o":"m 0 790 l 433 790 l 433 692 l 296 692 l 296 456 l 138 456 l 138 692 l 0 692 l 0 790 m 849 790 l 1006 790 l 1006 456 l 849 456 l 849 574 l 750 456 l 651 574 l 651 456 l 493 456 l 493 790 l 651 790 l 749 672 l 849 790 z "},"´":{"ha":538,"x_min":0,"x_max":524,"o":"m 0 863 l 285 1054 l 524 1054 l 239 863 l 0 863 z "},"¨":{"ha":565,"x_min":0,"x_max":551,"o":"m 119 1101 q 204 1067 169 1101 q 239 982 239 1032 q 204 897 239 932 q 119 863 169 863 q 35 897 69 863 q 0 982 0 932 q 35 1067 0 1032 q 119 1101 69 1101 m 431 1101 q 516 1067 481 1101 q 551 982 551 1032 q 516 897 551 932 q 431 863 481 863 q 347 897 382 863 q 311 982 311 932 q 347 1067 311 1032 q 431 1101 382 1101 z "},"¿":{"ha":1101,"x_min":0,"x_max":1054,"o":"m 526 575 q 442 610 478 575 q 407 694 407 644 q 442 779 407 744 q 526 814 478 814 q 612 779 576 814 q 647 694 647 744 q 612 610 647 644 q 526 575 576 575 m 0 239 q 108 385 0 321 q 383 469 215 449 l 383 526 l 671 526 l 671 335 l 526 335 q 425 321 467 335 q 383 288 383 307 q 425 253 383 268 q 526 239 467 239 q 628 253 586 239 q 671 288 671 268 l 1054 288 l 1054 239 q 899 70 1054 140 q 526 0 744 0 q 154 70 308 0 q 0 239 0 140 z "},"¡":{"ha":429,"x_min":0,"x_max":340,"o":"m 174 575 q 88 610 124 575 q 53 694 53 644 q 88 779 53 744 q 174 814 124 814 q 258 779 222 814 q 293 694 293 744 q 258 610 293 644 q 174 575 222 575 m 53 538 l 293 538 l 340 0 l 0 0 l 53 538 z "}," ":{"ha":521,"x_min":0,"x_max":0,"o":""},"À":{"ha":1110,"x_min":-44,"x_max":1106,"o":"m 722 0 l 671 143 l 389 143 l 339 0 l -44 0 l 243 814 l 818 814 l 1106 0 l 722 0 m 440 288 l 621 288 l 531 543 l 440 288 m 244 1054 l 483 1054 l 768 863 l 529 863 l 244 1054 z "},"Ã":{"ha":1110,"x_min":-44,"x_max":1106,"o":"m 722 0 l 671 143 l 389 143 l 339 0 l -44 0 l 243 814 l 818 814 l 1106 0 l 722 0 m 440 288 l 621 288 l 531 543 l 440 288 m 121 863 q 408 1101 210 1085 q 528 1075 490 1101 q 573 1026 550 1051 q 647 1001 596 1001 q 683 1014 667 1003 q 743 1101 724 1039 l 935 1101 q 779 892 915 951 q 647 863 724 867 q 515 888 564 863 q 456 933 490 900 q 408 958 432 958 q 372 946 389 956 q 313 863 332 922 l 121 863 z "},"Õ":{"ha":1350,"x_min":-31,"x_max":1276,"o":"m -31 407 q 160 710 -31 585 q 622 835 351 835 q 1085 710 893 835 q 1276 407 1276 585 q 1085 105 1276 231 q 622 -21 893 -21 q 160 105 351 -21 q -31 407 -31 231 m 622 231 q 800 283 726 231 q 874 407 874 335 q 800 532 874 481 q 622 583 726 583 q 444 532 518 583 q 371 407 371 481 q 444 283 371 335 q 622 231 518 231 m 214 863 q 501 1101 303 1085 q 621 1075 583 1101 q 666 1026 643 1051 q 740 1001 689 1001 q 776 1014 760 1003 q 836 1101 817 1039 l 1028 1101 q 872 892 1008 951 q 740 863 817 867 q 608 888 657 863 q 549 933 583 900 q 501 958 525 958 q 465 946 482 956 q 406 863 425 922 l 214 863 z "},"–":{"ha":865,"x_min":0,"x_max":767,"o":"m 767 288 l 0 288 l 0 526 l 767 526 l 767 288 z "},"—":{"ha":1201,"x_min":0,"x_max":1101,"o":"m 1101 288 l 0 288 l 0 522 l 1101 522 l 1101 288 z "},"“":{"ha":575,"x_min":0,"x_max":479,"o":"m 0 814 l 192 814 l 239 479 l 143 479 l 0 814 m 239 814 l 431 814 l 479 479 l 383 479 l 239 814 z "},"”":{"ha":565,"x_min":0,"x_max":479,"o":"m 479 814 l 335 479 l 239 479 l 288 814 l 479 814 m 239 814 l 96 479 l 0 479 l 47 814 l 239 814 z "},"‘":{"ha":336,"x_min":0,"x_max":239,"o":"m 0 814 l 192 814 l 239 479 l 143 479 l 0 814 z "},"’":{"ha":326,"x_min":0,"x_max":239,"o":"m 239 814 l 96 479 l 0 479 l 47 814 l 239 814 z "},"ÿ":{"ha":1007,"x_min":-111,"x_max":943,"o":"m 943 814 l 607 335 l 607 0 l 224 0 l 224 335 l -111 814 l 300 814 l 415 651 l 532 814 l 943 814 m 264 1101 q 349 1067 314 1101 q 383 982 383 1032 q 349 897 383 932 q 264 863 314 863 q 179 897 214 863 q 144 982 144 932 q 179 1067 144 1032 q 264 1101 214 1101 m 575 1101 q 660 1067 625 1101 q 694 982 694 1032 q 660 897 694 932 q 575 863 625 863 q 490 897 525 863 q 456 982 456 932 q 490 1067 456 1032 q 575 1101 525 1101 z "},"Ÿ":{"ha":1007,"x_min":-111,"x_max":943,"o":"m 943 814 l 607 335 l 607 0 l 224 0 l 224 335 l -111 814 l 300 814 l 415 651 l 532 814 l 943 814 m 264 1101 q 349 1067 314 1101 q 383 982 383 1032 q 349 897 383 932 q 264 863 314 863 q 179 897 214 863 q 144 982 144 932 q 179 1067 144 1032 q 264 1101 214 1101 m 575 1101 q 660 1067 625 1101 q 694 982 694 1032 q 660 897 694 932 q 575 863 625 863 q 490 897 525 863 q 456 982 456 932 q 490 1067 456 1032 q 575 1101 525 1101 z "},"Â":{"ha":1110,"x_min":-44,"x_max":1106,"o":"m 722 0 l 671 143 l 389 143 l 339 0 l -44 0 l 243 814 l 818 814 l 1106 0 l 722 0 m 440 288 l 621 288 l 531 543 l 440 288 m 386 863 l 194 863 l 529 1101 l 864 863 l 672 863 l 529 958 l 386 863 z "},"Ê":{"ha":1118,"x_min":0,"x_max":1054,"o":"m 1054 575 l 383 575 l 383 479 l 719 479 l 719 335 l 383 335 l 383 239 l 1054 239 l 1054 0 l 0 0 l 0 814 l 1054 814 l 1054 575 m 388 863 l 196 863 l 532 1101 l 867 863 l 675 863 l 532 958 l 388 863 z "},"Á":{"ha":1110,"x_min":-44,"x_max":1106,"o":"m 722 0 l 671 143 l 389 143 l 339 0 l -44 0 l 243 814 l 818 814 l 1106 0 l 722 0 m 440 288 l 621 288 l 531 543 l 440 288 m 290 863 l 575 1054 l 814 1054 l 529 863 l 290 863 z "},"Ë":{"ha":1118,"x_min":0,"x_max":1054,"o":"m 1054 575 l 383 575 l 383 479 l 719 479 l 719 335 l 383 335 l 383 239 l 1054 239 l 1054 0 l 0 0 l 0 814 l 1054 814 l 1054 575 m 372 1101 q 457 1067 422 1101 q 492 982 492 1032 q 457 897 492 932 q 372 863 422 863 q 288 897 322 863 q 253 982 253 932 q 288 1067 253 1032 q 372 1101 322 1101 m 683 1101 q 768 1067 733 1101 q 803 982 803 1032 q 768 897 803 932 q 683 863 733 863 q 599 897 633 863 q 564 982 564 932 q 599 1067 564 1032 q 683 1101 633 1101 z "},"È":{"ha":1118,"x_min":0,"x_max":1054,"o":"m 1054 575 l 383 575 l 383 479 l 719 479 l 719 335 l 383 335 l 383 239 l 1054 239 l 1054 0 l 0 0 l 0 814 l 1054 814 l 1054 575 m 231 1054 l 469 1054 l 754 863 l 515 863 l 231 1054 z "},"Í":{"ha":485,"x_min":0,"x_max":524,"o":"m 383 0 l 0 0 l 0 814 l 383 814 l 383 0 m 0 863 l 285 1054 l 524 1054 l 239 863 l 0 863 z "},"Î":{"ha":485,"x_min":-139,"x_max":531,"o":"m 383 0 l 0 0 l 0 814 l 383 814 l 383 0 m 53 863 l -139 863 l 196 1101 l 531 863 l 339 863 l 196 958 l 53 863 z "},"Ï":{"ha":485,"x_min":-83,"x_max":468,"o":"m 383 0 l 0 0 l 0 814 l 383 814 l 383 0 m 36 1101 q 121 1067 86 1101 q 156 982 156 1032 q 121 897 156 932 q 36 863 86 863 q -49 897 -14 863 q -83 982 -83 932 q -49 1067 -83 1032 q 36 1101 -14 1101 m 347 1101 q 433 1067 397 1101 q 468 982 468 1032 q 433 897 468 932 q 347 863 397 863 q 263 897 299 863 q 228 982 228 932 q 263 1067 228 1032 q 347 1101 299 1101 z "},"Ì":{"ha":485,"x_min":-153,"x_max":383,"o":"m 383 0 l 0 0 l 0 814 l 383 814 l 383 0 m -153 1054 l 86 1054 l 371 863 l 132 863 l -153 1054 z "},"Ó":{"ha":1350,"x_min":-31,"x_max":1276,"o":"m -31 407 q 160 710 -31 585 q 622 835 351 835 q 1085 710 893 835 q 1276 407 1276 585 q 1085 105 1276 231 q 622 -21 893 -21 q 160 105 351 -21 q -31 407 -31 231 m 622 231 q 800 283 726 231 q 874 407 874 335 q 800 532 874 481 q 622 583 726 583 q 444 532 518 583 q 371 407 371 481 q 444 283 371 335 q 622 231 518 231 m 454 863 l 739 1054 l 978 1054 l 693 863 l 454 863 z "},"Ô":{"ha":1350,"x_min":-31,"x_max":1276,"o":"m -31 407 q 160 710 -31 585 q 622 835 351 835 q 1085 710 893 835 q 1276 407 1276 585 q 1085 105 1276 231 q 622 -21 893 -21 q 160 105 351 -21 q -31 407 -31 231 m 622 231 q 800 283 726 231 q 874 407 874 335 q 800 532 874 481 q 622 583 726 583 q 444 532 518 583 q 371 407 371 481 q 444 283 371 335 q 622 231 518 231 m 475 863 l 283 863 l 618 1101 l 953 863 l 761 863 l 618 958 l 475 863 z "},"Ò":{"ha":1350,"x_min":-31,"x_max":1276,"o":"m -31 407 q 160 710 -31 585 q 622 835 351 835 q 1085 710 893 835 q 1276 407 1276 585 q 1085 105 1276 231 q 622 -21 893 -21 q 160 105 351 -21 q -31 407 -31 231 m 622 231 q 800 283 726 231 q 874 407 874 335 q 800 532 874 481 q 622 583 726 583 q 444 532 518 583 q 371 407 371 481 q 444 283 371 335 q 622 231 518 231 m 269 1054 l 508 1054 l 793 863 l 554 863 l 269 1054 z "},"Ú":{"ha":1343,"x_min":0,"x_max":1246,"o":"m 1246 407 q 1063 119 1246 239 q 622 0 881 0 q 183 119 365 0 q 0 407 0 239 l 0 814 l 383 814 l 383 407 q 453 288 383 338 q 622 239 524 239 q 792 288 722 239 q 863 407 863 338 l 863 814 l 1246 814 l 1246 407 m 483 863 l 768 1054 l 1007 1054 l 722 863 l 483 863 z "},"Û":{"ha":1343,"x_min":0,"x_max":1246,"o":"m 1246 407 q 1063 119 1246 239 q 622 0 881 0 q 183 119 365 0 q 0 407 0 239 l 0 814 l 383 814 l 383 407 q 453 288 383 338 q 622 239 524 239 q 792 288 722 239 q 863 407 863 338 l 863 814 l 1246 814 l 1246 407 m 475 863 l 283 863 l 618 1101 l 953 863 l 761 863 l 618 958 l 475 863 z "},"Ù":{"ha":1343,"x_min":0,"x_max":1246,"o":"m 1246 407 q 1063 119 1246 239 q 622 0 881 0 q 183 119 365 0 q 0 407 0 239 l 0 814 l 383 814 l 383 407 q 453 288 383 338 q 622 239 524 239 q 792 288 722 239 q 863 407 863 338 l 863 814 l 1246 814 l 1246 407 m 253 1054 l 493 1054 l 778 863 l 538 863 l 253 1054 z "}}}
